<?xml version="1.0" standalone="no"?>
<!DOCTYPE svg PUBLIC "-//W3C//DTD SVG 1.1//EN" "http://www.w3.org/Graphics/SVG/1.1/DTD/svg11.dtd" >
<svg xmlns="http://www.w3.org/2000/svg">
<metadata>
Created by FontForge 20120731 at Thu Aug  4 15:07:33 2016
 By admin
</metadata>
<defs>
<font id="iconfont" horiz-adv-x="1024" >
  <font-face 
    font-family="iconfont"
    font-weight="500"
    font-stretch="normal"
    units-per-em="1024"
    panose-1="2 0 6 3 0 0 0 0 0 0"
    ascent="896"
    descent="-128"
    x-height="792"
    bbox="0 -128 1030 896"
    underline-thickness="50"
    underline-position="-100"
    unicode-range="U+0078-E61D"
  />
<missing-glyph horiz-adv-x="374" 
d="M34 0v682h272v-682h-272zM68 34h204v614h-204v-614z" />
    <glyph glyph-name=".notdef" horiz-adv-x="374" 
d="M34 0v682h272v-682h-272zM68 34h204v614h-204v-614z" />
    <glyph glyph-name=".null" horiz-adv-x="0" 
 />
    <glyph glyph-name="nonmarkingreturn" horiz-adv-x="341" 
 />
    <glyph glyph-name="x" unicode="x" horiz-adv-x="1001" 
d="M281 543q-27 -1 -53 -1h-83q-18 0 -36.5 -6t-32.5 -18.5t-23 -32t-9 -45.5v-76h912v41q0 16 -0.5 30t-0.5 18q0 13 -5 29t-17 29.5t-31.5 22.5t-49.5 9h-133v-97h-438v97zM955 310v-52q0 -23 0.5 -52t0.5 -58t-10.5 -47.5t-26 -30t-33 -16t-31.5 -4.5q-14 -1 -29.5 -0.5
t-29.5 0.5h-32l-45 128h-439l-44 -128h-29h-34q-20 0 -45 1q-25 0 -41 9.5t-25.5 23t-13.5 29.5t-4 30v167h911zM163 247q-12 0 -21 -8.5t-9 -21.5t9 -21.5t21 -8.5q13 0 22 8.5t9 21.5t-9 21.5t-22 8.5zM316 123q-8 -26 -14 -48q-5 -19 -10.5 -37t-7.5 -25t-3 -15t1 -14.5
t9.5 -10.5t21.5 -4h37h67h81h80h64h36q23 0 34 12t2 38q-5 13 -9.5 30.5t-9.5 34.5q-5 19 -11 39h-368zM336 498v228q0 11 2.5 23t10 21.5t20.5 15.5t34 6h188q31 0 51.5 -14.5t20.5 -52.5v-227h-327z" />
    <glyph glyph-name="uniE600" unicode="&#xe600;" 
d="M1024 384q0 -208 -147 -365q-157 -147 -365 -147t-365 147q-147 157 -147 365t147 365q157 147 365 147t365 -147q147 -157 147 -365zM960 384q0 182 -128 320q-128 128 -320 128q-182 0 -320 -128q-128 -128 -128 -320q0 -182 128 -320q134 -134 320 -134t320 134
q128 138 128 320zM762 410q6 -7 6 -26t-6.5 -25.5t-25.5 -6.5h-192v-192q0 -19 -6.5 -25.5t-25.5 -6.5t-25.5 6.5t-6.5 25.5v192h-192q-19 0 -25.5 6.5t-6.5 25.5t6.5 25.5t25.5 6.5h192v192q0 19 6.5 25.5t25.5 6.5t25.5 -6.5t6.5 -25.5v-192h192q19 0 26 -6z" />
    <glyph glyph-name="uniE601" unicode="&#xe601;" 
d="M736 506q-19 19 -38 0l-186 -186l-186 186q-19 9 -38 0q-10 -5 -10 -17t10 -22l205 -205q6 -6 19 -6t19 6l205 205q10 19 0 39z" />
    <glyph glyph-name="uniE602" unicode="&#xe602;" 
d="M390 608q-9 -19 0 -38l186 -186l-186 -186q-19 -19 0.5 -38t38.5 0l205 205q6 6 6 19t-6 19l-205 205q-19 10 -39 0z" />
    <glyph glyph-name="uniE603" unicode="&#xe603;" 
d="M634 160q19 19 0 38l-186 186l186 186q19 19 -0.5 38t-38.5 0l-205 -205q-6 -6 -6 -19t6 -19l205 -205q19 -10 39 0z" />
    <glyph glyph-name="uniE604" unicode="&#xe604;" 
d="M288 262q19 -19 38 0l186 186l186 -186q19 -19 38 0.5t0 38.5l-205 205q-6 6 -19 6t-19 -6l-205 -205q-10 -19 0 -39z" />
    <glyph glyph-name="uniE605" unicode="&#xe605;" 
d="M960 531v-544q0 -11 -5 -22.5t-14 -15.5q-19 -19 -39 -19l-780 6q-11 0 -22.5 5t-16.5 14q-19 10 -19 39v780q0 11 5 22.5t14 16.5q10 19 39 19h544q12 0 51 -13q11 -4 26 -14t19 -11l160 -160q16 -16 25 -45q2 -8 6 -21t5.5 -20.5t1.5 -16.5zM813 13h77v525q0 12 -7 25
q-2 3 -4 8t-4 8t-5 3l-166 160q-3 4 -9.5 7t-9.5 6q-7 7 -26 7v-244q0 -10 -5 -22t-14 -16q-10 -19 -32 -19h-339q-13 0 -39 13q-19 19 -19 38v243h-77v-749h77v244q0 10 5 22t14 16q20 19 39 19h486q19 0 38.5 -19t19.5 -38v-237v0zM288 13h448v224h-448v-224v0zM589 550
v186q0 6 -6.5 12.5t-12.5 6.5h-109q-10 0 -12.5 -0.5t-6.5 -5.5q-7 -7 -7 -13v-186q0 -12 7 -12q3 0 6 -3.5t6 -3.5h109q13 0 13 7q2 2 5.5 4t5.5 4t2 4z" />
    <glyph glyph-name="uniE606" unicode="&#xe606;" 
d="M1024 333q0 -39 -26 -64l-160 -186q-12 -19 -64 -45q-38 -19 -76 -19h-583q-51 0 -83 32q-32 43 -32 83v493q0 45 38 83q32 32 84 32h172q52 0 84 -32q38 -38 38 -83v-19h294q52 0 84 -32q38 -38 38 -83v-83h102q26 0 52 -13l7 -3q3 -2 6.5 -4.5t5.5 -4t5 -5.5l4 -6l5 -8
q4 -6 5 -8v-25zM346 416h409v83q0 19 -13 32q-2 1 -8 4.5t-9 4.5t-8.5 2.5t-12.5 1.5h-307q-13 0 -39 13q-12 13 -12 38v32q0 19 -13 32q-19 19 -39 19h-172q-13 0 -39 -12q-6 -7 -9 -12t-3.5 -9t-0.5 -11v-436l135 160q13 20 64 45q51 13 77 13zM954 333q0 19 -26 19h-582
q-20 0 -45 -13q-29 -9 -45 -25l-154 -186q-12 -13 -12 -19q0 -19 25 -19h583q19 0 44 12q20 7 39 26l160 186q13 6 13 19z" />
    <glyph glyph-name="uniE607" unicode="&#xe607;" 
d="M480 691h480q26 0 45 -19t19 -45v-582q0 -26 -19 -45t-45 -19h-896q-26 0 -45 19t-19 45v678q0 26 19 45t45 19h320l96 -96v0zM352 723h-288v-678h896v582h-480h-26l-19 19l-83 77v0z" />
    <glyph glyph-name="uniE608" unicode="&#xe608;" 
d="M45 -128l-45 45l768 768l45 -45zM787 666l58 -288l173 518l-519 -173z" />
    <glyph glyph-name="uniE609" unicode="&#xe609;" 
d="M6 -38v38v77q0 45 13 109q9 52 39 121q25 59 70 115q141 170 422 180v185q0 23 20 32q4 9 12.5 10.5t12.5 -3.5l416 -359q13 -13 13 -25.5t-13 -25.5l-416 -352q-9 -9 -16 -10.5t-16 4.5q-19 9 -19 32v192q-90 0 -166 -20q-81 -20 -122 -44q-32 -20 -83 -58
q-45 -45 -58 -64q-25 -38 -32 -64q-19 -29 -19 -45q0 -19 -6 -25q0 -14 -8 -23t-18 -9q-26 12 -26 32zM602 333q6 -7 6 -19v-154l333 288l-333 282v-148q0 -19 -13 -25q0 -5 -7 -9t-12 -4q-278 0 -410 -160q-83 -104 -102 -250q19 32 64 77q64 48 96 64q42 28 147 51
q87 20 205 20q13 0 26 -13z" />
    <glyph glyph-name="uniE60A" unicode="&#xe60a;" 
d="M506 -13v-19q0 -5 -4 -9t-9 -4l-13 -6l-147 -77q-13 0 -26 13v6q-11 23 7 32l83 45h-7q-85 19 -160 83q-58 50 -115 141q-82 164 -25 333q57 171 217 256q9 8 26 0q6 0 19 -13q6 -14 3.5 -25t-16.5 -20q-141 -66 -192 -217q-45 -136 26 -288q45 -80 96 -122
q58 -49 134 -70h13l-58 89q-11 23 7 32l6 7q23 11 32 -7l96 -147l7 -13v0zM934 237q-60 -181 -211 -256h-13q-16 0 -25 19q-6 14 -3.5 25t16.5 20q143 82 179 224q24 76 18 146t-44 142q-77 153 -230 192q-7 0 -19.5 3t-19.5 3l58 -102q12 -23 -6 -32l-7 -7
q-10 -4 -18.5 -0.5t-13.5 13.5l-89 141l-7 13q0 2 -1.5 6t-1.5 7t3 6q0 5 4 9t9 4l13 6l147 77q19 0 26 -13v-13q5 -4 3.5 -12.5t-10.5 -12.5l-83 -39q7 0 15 -3t11 -3q88 -29 160 -83q70 -61 115 -141q79 -169 25 -339z" />
    <glyph glyph-name="uniE60B" unicode="&#xe60b;" 
d="M192 883l710 -448q26 -17 26 -51q0 -43 -26 -51l-710 -448q-26 -13 -32 -13q-19 0 -32 6q-32 22 -32 58v896q0 36 32 58q13 6 32 6q6 0 32 -13zM160 -64l710 448l-710 448v-896v0z" />
    <glyph glyph-name="uniE60C" unicode="&#xe60c;" 
d="M1024 -77l-294 295q44 54 70 123t26 139q0 113 -55.5 209t-151.5 151.5t-209 55.5t-207.5 -55.5t-148.5 -149.5t-54 -205q0 -110 55.5 -204.5t149.5 -149.5t205 -55q145 0 262 96l294 -295l58 45v0zM45 486q0 101 49.5 186.5t135 135.5t186.5 50t185 -50t132 -135.5
t48 -186.5q0 -100 -49.5 -185.5t-133.5 -135.5t-182 -50t-183.5 49.5t-136.5 135.5t-51 186z" />
    <glyph glyph-name="uniE60D" unicode="&#xe60d;" 
d="M6 851l404 -953q17 -26 38 -26q9 0 15.5 5.5t16.5 20.5l128 403l397 121q8 8 11 12t5.5 9t2.5 11q0 10 -5.5 15.5t-20.5 10.5l-953 410q-7 6 -19 6q-19 0 -22 -10.5t2 -34.5zM902 454l-345 -102l-115 -346l-340 788l800 -340v0z" />
    <glyph glyph-name="uniE60E" unicode="&#xe60e;" horiz-adv-x="1031" 
d="M992 -64q-15 0 -20.5 6.5t-5.5 25.5q0 13 -6 19q0 7 -13 45q-3 9 -7.5 18.5t-11.5 23.5l-13 22q-13 19 -57 64q-41 41 -84 58q-41 24 -121 44q-115 13 -173 13v-192q0 -22 -19 -32q-10 -4 -18.5 -0.5t-13.5 13.5l-416 352q-13 13 -13 25.5t13 25.5l416 359q10 10 32 0
q19 -10 19 -32v-186q287 -10 429 -179q34 -43 70 -115q30 -70 39 -122q12 -77 12 -109v-77v-38q-21 -32 -38 -32zM448 346q118 0 205 -20q80 -18 147 -51q14 -9 34.5 -22.5t35.5 -23t26 -18.5q33 -24 64 -77q-18 146 -109 256q-125 154 -403 154q-13 0 -19 6q-13 13 -13 26
v147l-333 -281l333 -288v153q0 8 0.5 11.5t3.5 7.5t9 7q0 4 7 8.5t12 4.5z" />
    <glyph glyph-name="uniE60F" unicode="&#xe60f;" 
d="M825 526h-23v148h-244v23h267v-171v0zM825 71h-267v23h244v148h23v-171v0zM597 583h-569v285h569v-285v0zM80 634h466v182h-466v-182v0zM597 -100h-569v285h569v-285v0zM80 -48h466v187h-466v-187v0zM996 242h-399v284h399v-284v0zM631 293h330v182h-330v-182v0z" />
    <glyph glyph-name="uniE610" unicode="&#xe610;" 
d="M324 145l-28 -28q-3 -3 -5.5 -4.5t-4.5 -1.5h-2q-11 0 -11 6l-262 256l-1 1t-2.5 4t-1.5 6q0 11 5 11l256 256q6 6 17.5 6t11.5 -6l28 -28l6 -10v-1q0 -12 -6 -12l-216 -216l216 -216q6 -6 6 -12q0 -2 -1.5 -5t-2.5 -4zM649 731l-205 -711q0 -3 -3 -6t-3 -5q-2 0 -5 -1.5
t-4.5 -1.5t-1.5 3l-34 11q-3 0 -4.5 1.5t-3.5 4.5t-4 5q0 2 -2 6t2 6l205 711q0 3 3 5.5t3 5.5q2 0 5 1.5t4.5 1.5t1.5 -3l34 -11q3 0 4.5 -1.5t3 -4.5t4.5 -6v-11zM1013 373l-256 -256q-6 -6 -12 -6q-11 0 -11 6l-29 28q-5 6 -5 11q0 12 5 12l211 216l-216 216q-6 6 -6 12
q0 11 6 11l28 28q3 3 5.5 4.5t4.5 1.5h2q11 0 11 -6l256 -256q6 -5 6 -11v-11z" />
    <glyph glyph-name="uniE611" unicode="&#xe611;" 
d="M688 -3q-2 -3 -11 -5.5t-11 -5.5q-110 -46 -256 -46q-57 0 -148 12q-76 19 -114 34q-47 19 -74 45q-28 29 -28 51v120q11 0 17 -6q53 -45 142 -62q83 -23 199 -23q121 0 205 23q6 0 13 2.5t9 2.5l-22 29q-95 -29 -205 -29q-57 0 -148 12q-41 5 -114 34q-47 19 -74 45
q-17 43 -17 57v120q3 0 6 -3t6 -3q53 -45 142 -63q83 -22 199 -22q68 0 102 5q-2 3 -3.5 7.5t-3.5 12.5t-4 15q-14 0 -43.5 -3t-47.5 -3q-57 0 -148 11q-80 23 -108.5 34.5t-73.5 45.5q-23 23 -23 51v120l2 -2l1 -1l1 -1l1 -1l1 -1v-1h1l1 -1l1 -1l1 -1v-1l2 -1
q54 -36 142 -62q83 -23 199 -23q121 0 205 23q99 27 142 62q11 12 17 12v-120q0 -20 -17 -45h57v227q0 48 -51 91q-55 46 -148 63q-105 28 -199 28q-122 0 -205 -23q-90 -24 -142 -68q-36 -26 -46 -57q-6 0 -6 -17v-11v-6v-580q0 -48 52 -91q53 -45 142 -63q83 -22 199 -22
q121 0 205 22q16 3 40.5 12t33.5 11v34h5zM74 725q31 32 74 46q38 15 114 34q91 11 148 11q146 0 256 -45q94 -43 102 -91q-8 -48 -102 -91q-120 -40 -256 -40q-57 0 -148 11q-76 19 -114 34q-29 18 -74 52q-14 14 -23 40q2 2 4.5 8.5t5 11t6 10t7.5 9.5zM956 344l-165 -227
l-6 -6l-6 6l-165 227h342zM990 390h-404q-14 0 -23 -17q-7 -15 0 -29l182 -250v-148l80 51v97l182 250q7 14 0 29q0 17 -17 17z" />
    <glyph glyph-name="uniE612" unicode="&#xe612;" 
d="M512 356h-68l-46 130h-193l-51 -130h-69l177 483h62l188 -483v0zM375 538l-68 204q0 2 -2.5 13.5t-2.5 21.5q0 -10 -3 -21.5t-3 -13.5l-74 -204h153v0zM802 589q-6 5 -17 5t-17 -5l-40 -34v28q-2 6 -4 16.5t-5 19t-8 15.5q-13 27 -28 34q-15 15 -40 23q-34 12 -51 12
q-8 0 -26.5 2.5t-30.5 2.5t-17 -5q-6 0 -6 -11.5t6 -17.5q3 0 8.5 -3t8.5 -3q34 0 51 -5q6 0 40 -12q5 -2 14 -8t14 -9q12 -11 17 -22q3 -6 6 -17.5t6 -17.5v-28l-40 34q-6 6 -17.5 6t-17 -6t-5.5 -17t6 -11l5 -6l91 -80q6 -5 12 -5q5 0 11 5l74 86l6 5q6 6 6 11.5t-12 17.5
zM688 -26v421h114q58 0 80 -28q28 -21 28 -68q0 -37 -17 -63q-14 -21 -51 -40q38 -9 63 -34q22 -23 22 -68q0 -60 -34 -85q-34 -35 -91 -35h-114v0zM740 350v-131h45q31 0 57 17q23 23 23 51q0 30 -18 43.5t-56 13.5h-51v6zM740 168v-148h56q37 0 63 17q23 23 23 57
q0 38 -22 56t-69 18h-51v0zM984 856v-944h-944v944h944v0zM1024 896h-1024v-1024h1024v1024v0z" />
    <glyph glyph-name="uniE613" unicode="&#xe613;" 
d="M495 397h-64l-47 124h-188l-42 -124h-64l166 456h64zM363 572l-69 192l-2 10q-2 9 -2 20q-8 -26 -8 -30l-69 -192h150zM789 614q-8 9 -21 9q-4 0 -21 -9l-43 -38v34v4q-9 43 -17 60q-17 34 -30 43q-17 17 -43 30q-17 8 -51 17q-7 2 -28 4.5t-32 3.5q-4 0 -21 -8
q-8 -9 -8 -22q0 -4 8 -21q9 -8 17 -8q26 0 51 -9q5 -1 12.5 -3t14 -4t12.5 -6q20 -7 25 -17q11 -11 17 -30q9 -25 9 -42v-35l-43 39q-8 8 -17 8q-4 0 -21 -8q-9 -9 -9 -21.5t5 -17.5l4 -4l94 -94q4 -4 13 -4h4q8 0 13 4l94 94l4 4q4 5 4 18q13 21 4 29zM674 -55v452h132
q64 0 94 -30q34 -23 34 -77q0 -33 -21 -68q-23 -30 -60 -43q45 -6 73 -34q25 -32 25 -77q0 -63 -42 -94q-13 -13 -40 -21t-58 -8h-137zM734 346v-141h51q40 0 68 21q26 19 26 56q0 64 -85 64h-60zM734 154v-158h68q44 0 73 21q25 19 25 60q0 77 -106 77h-60z" />
    <glyph glyph-name="uniE614" unicode="&#xe614;" 
d="M978 674v-580h-932v580h932v0zM1018 714h-1012v-654h1012v654v0zM370 145q-4 0 -5 1.5t-1 9.5v325l-80 -239q0 -3 -1 -4.5t-3 -1.5h-1h-29q-4 0 -4.5 1t-0.5 5l-74 233v-319q0 -4 -3.5 -7.5t-8.5 -3.5h-28q-4 0 -5 1.5t-1 9.5v461q0 3 1.5 5.5t2.5 4.5l2 2h28q5 0 5.5 -1
t0.5 -5l97 -302l96 302q0 2 1.5 3.5t3.5 1.5l1 1h29q3 0 5 -0.5t4 -3t2 -8.5v-461q0 -4 -3.5 -7.5t-7.5 -3.5h-23v0zM631 145q-5 0 -11 6l-28 148q0 4 -3.5 7.5t-8.5 3.5h-68q-4 0 -7.5 -3.5t-3.5 -7.5l-35 -148q0 -3 -1 -4.5t-3 -1.5h-1h-29q-4 0 -4.5 0.5t-0.5 5.5v5
l102 461q0 3 1.5 4.5t2.5 1.5h2h23q5 0 11 -6l97 -461v-5q0 -3 -1.5 -4.5t-3.5 -1.5h-1h-29v0zM512 361v-5h6h57h5v5l-34 148l-34 -148v0zM859 145q-4 0 -5 0.5t-1 5.5l-62 170l-63 -170q0 -3 -1.5 -4.5t-2.5 -1.5h-2h-28q-4 0 -5 0.5t-1 5.5v5l80 217v22l-85 217v5l5 6h29
q4 0 4.5 -0.5t0.5 -5.5l63 -170l63 170q0 3 1 4.5t3 1.5h1h29q4 0 4.5 -0.5t0.5 -5.5v-5l-79 -217v-22l79 -211v-6q0 -2 -1 -3.5t-3 -1.5h-1h-23v-6z" />
    <glyph glyph-name="uniE615" unicode="&#xe615;" 
d="M329 94q-13 0 -13 13v396l-98 -290q0 -3 -3 -5.5t-6 -2.5h-38q-4 0 -6.5 2.5t-2.5 5.5l-98 286v-397q0 -12 -13 -12h-34q-13 0 -13 12v564q0 12 13 12h38q9 0 9 -4l124 -375l128 371q0 4 8 4h39q12 0 12 -13v-563q0 -13 -12 -13h-34v9zM666 94q-5 0 -13 8l-39 180
q0 12 -17 12h-89q-11 0 -17 -12l-43 -180q0 -4 -9 -4h-38q-8 0 -8 4v9l132 563q0 4 8 4h34q4 0 6 -0.5t4 -3.5t3 -4l128 -563v-9q0 -4 -8 -4h-34zM512 354v-8h9h72h9v8l-43 184zM969 94q-9 0 -13 4l-81 209l-81 -209q0 -4 -9 -4h-38q-9 0 -9 4q0 1 -1.5 4.5t1.5 4.5l103 264
q6 12 0 30l-103 265v8q0 4 9 4h38q9 0 9 -4l81 -209l81 209q0 3 2.5 6t5.5 3h39q8 0 8 -5v-8l-102 -265q-6 -12 0 -30l102 -260v-8q0 -5 -8 -5h-34v-8z" />
    <glyph glyph-name="uniE616" unicode="&#xe616;" 
d="M814 515l204 125l-204 125v-250v0zM1013 -94q0 3 -1.5 5.5t-3.5 4.5l-1 2l-11 11l-12 11q-28 38 -74 69q-11 5 -28 17q-17 5 -34 22q-8 4 -12.5 11t-4.5 12l45 11q6 0 17.5 3t16.5 3q10 0 21.5 3t12.5 3q6 6 17 6q3 0 9 2.5t8 2.5v6q0 6 -17 23q-2 5 -9.5 12.5t-7.5 9.5
q-49 43 -113 86q-23 11 -40 17q-26 8 -34 17h-12q-5 0 -11 6l6 -12l-29 57q-2 5 -16.5 32.5t-23.5 47t-17 40.5l-34 74q-92 150 -267 256q-69 22 -91 28q-40 0 -52 6q-5 0 -17 11q-2 3 -5 4t-4 2h-2q-135 92 -171 11q0 -6 -2.5 -16t-2.5 -12q0 -17 5 -23q2 -4 5.5 -9t5 -8
t1.5 -6l17 -23q17 -8 17 -17l34 -51q0 -3 3 -8.5t3 -8.5t2.5 -8.5t2.5 -8.5q35 -85 40 -91q5 -8 9.5 -16t8 -17t5.5 -13l17 -22q-4 0 -7.5 -7.5t-3.5 -15.5q0 -5 -1.5 -10.5t-3.5 -9.5l-1 -3q-43 -129 23 -227q17 -26 37 -37.5t37 -2.5q17 8 17 17q0 1 2.5 12.5t2.5 21.5
q0 8 1.5 15t3.5 10l1 3q0 6 6 12q0 6 6 11v-5l28 -57q33 -50 91 -91l11 -17q7 -7 17 -14t12 -9v5h-6q0 6 -6 6q-2 0 -3.5 1.5t-1.5 2.5v2q-8 5 -15 12t-14.5 15.5t-10.5 12.5q-57 85 -74 119t-28 63l-12 34q0 -6 -17 -23t-17 -23q-9 -17 -17 -102q-6 0 -6 -6q-23 12 -40 46
q-37 94 -5 182q7 20 13 38.5t8 26.5l1 9q0 5 -11 17q-4 3 -6.5 7t-4 6t-3 3t-3.5 1q-3 6 -11.5 20t-11.5 20l-22 57l-18 62q-11 23 -39 51q-10 16 -18.5 30t-12.5 20.5t-3 6.5q-6 12 -6 29q0 2 1.5 3.5t4.5 3.5t5 4q23 0 46 -11q42 -17 68 -34l11 -12q12 -11 23 -11h11
q2 0 13.5 -3t21.5 -3q28 0 34 -6q28 -5 96 -39q145 -91 217 -234l5 -22l12 -23q2 -4 9 -21.5t13 -29.5l23 -46q9 -17 19 -38.5t16 -33t11 -19.5q11 -11 17 -11q3 -3 13.5 -6t14.5 -6q4 -2 9.5 -3.5t8 -3t5.5 -4.5q11 0 23 -6l23 -11q8 -4 15 -8t22 -14.5t31 -23.5
q45 -30 45 -39q-79 0 -131 -17l-28 -18q0 -5 6 -11q0 -2 2 -5l2 -5l1 -1q23 -34 35 -40q37 -29 45 -29q3 -1 16.5 -10t23.5 -12q7 -3 15.5 -7t17.5 -9t12 -7q17 -11 46 -28l11 -12q6 -6 12 -6q4 -4 4 -1t-4 7zM256 691q-6 6 -11 6q0 2 -1.5 3.5t-3.5 1.5l-1 1h-29v-6
q0 -4 4 -7.5t8 -3.5l11 -12q0 -11 6 -17t6 -17l5 6q8 4 10 11t2 23q-6 0 -6 6v5z" />
    <glyph glyph-name="uniE617" unicode="&#xe617;" 
d="M1018 515l-204 125l204 125v-250v0zM1013 -94q0 3 -1.5 5.5t-3.5 4.5l-1 2l-11 11l-12 11q-28 38 -74 69q-11 5 -28 17q-17 5 -34 22q-8 4 -12.5 11t-4.5 12l45 11q6 0 17.5 3t16.5 3q10 0 21.5 3t12.5 3q6 6 17 6q3 0 9 2.5t8 2.5v6q0 6 -17 23q-2 5 -9.5 12.5t-7.5 9.5
q-49 43 -113 86q-23 11 -40 17q-26 8 -34 17h-12q-5 0 -11 6l6 -12l-29 57q-2 5 -16.5 32.5t-23.5 47t-17 40.5l-34 74q-92 150 -267 256q-69 22 -91 28q-40 0 -52 6q-5 0 -17 11q-5 6 -17 6q-63 46 -106 48t-59 -37q0 -6 -2.5 -16t-2.5 -12q0 -17 5 -23q2 -4 5.5 -9t5 -8
t1.5 -6l17 -23q17 -8 17 -17l34 -51q0 -3 3 -8.5t3 -8.5t2.5 -8.5t2.5 -8.5q35 -85 40 -91q5 -8 9.5 -16t8 -17t5.5 -13l17 -22q-4 0 -7.5 -7.5t-3.5 -15.5q0 -5 -1.5 -10.5t-3.5 -9.5l-1 -3q-43 -129 23 -227q17 -26 37 -37.5t37 -2.5q17 8 17 17q0 1 2.5 12.5t2.5 21.5
q0 8 1.5 15t3.5 10l1 3q0 6 6 12q0 6 6 11v-5l28 -57q33 -50 91 -91l11 -17q7 -7 17 -14t12 -9v5h-6q0 6 -6 6q-2 0 -3.5 1.5t-1.5 2.5v2q-8 5 -15 12t-14.5 15.5t-10.5 12.5q-57 85 -74 119t-28 63l-12 34q0 -6 -17 -23t-17 -23q-9 -17 -17 -102q-6 0 -6 -6q-23 12 -40 46
q-37 94 -5 182q7 20 13 38.5t8 26.5l1 9q0 5 -11 17q-4 3 -6.5 7t-4 6t-3 3t-3.5 1q-3 6 -11.5 20t-11.5 20l-22 57l-18 62q-11 23 -39 51q-10 16 -18.5 30t-12.5 20.5t-3 6.5q-6 12 -6 29q0 2 1.5 3.5t4.5 3.5t5 4q23 0 46 -11q42 -17 68 -34l11 -12q12 -11 23 -11h11
q2 0 13.5 -3t21.5 -3q28 0 34 -6q53 -10 96 -39q145 -91 217 -234l5 -22l12 -23q2 -4 9 -21.5t13 -29.5l23 -46q9 -17 19 -38.5t16 -33t11 -19.5q11 -11 17 -11q3 -3 13.5 -6t14.5 -6q4 -2 9.5 -3.5t8 -3t5.5 -4.5q11 0 23 -6l23 -11q8 -4 15 -8t22 -14.5t31 -23.5
q45 -30 45 -39q-79 0 -131 -17l-28 -18q0 -5 6 -11q0 -2 2 -5l2 -5l1 -1q23 -34 35 -40q37 -29 45 -29q3 -1 16.5 -10t23.5 -12q7 -3 15.5 -7t17.5 -9t12 -7q17 -11 46 -28l11 -12q6 -6 12 -6q4 -4 4 -1t-4 7zM256 691q-6 6 -11 6q0 2 -1.5 3.5t-3.5 1.5l-1 1h-29v-6
q0 -4 4 -7.5t8 -3.5l11 -12q0 -11 6 -17t6 -17l5 6q8 4 10 11t2 23q-6 0 -6 6v5z" />
    <glyph glyph-name="uniE618" unicode="&#xe618;" 
d="M461 185h-251q-84 0 -144 58.5t-60 140.5q0 85 59.5 142t144.5 57h251q84 0 141.5 -58.5t57.5 -140.5q4 -84 -54.5 -141.5t-144.5 -57.5zM210 538q-64 0 -108.5 -45t-44.5 -109t44.5 -109t108.5 -45h251q64 0 108.5 45t44.5 109t-44.5 109t-108.5 45h-251zM814 259
l204 125l-204 125v-250v0z" />
    <glyph glyph-name="uniE619" unicode="&#xe619;" 
d="M461 185h-251q-84 0 -144 58.5t-60 140.5q0 85 59.5 142t144.5 57h251q84 0 141.5 -58.5t57.5 -140.5q4 -84 -54.5 -141.5t-144.5 -57.5zM210 538q-64 0 -108.5 -45t-44.5 -109t44.5 -109t108.5 -45h251q64 0 108.5 45t44.5 109t-44.5 109t-108.5 45h-251zM1018 259
l-204 125l204 125v-250v0z" />
    <glyph glyph-name="uniE61A" unicode="&#xe61a;" 
d="M330 532l-46 -46q-29 40 -51 40q-17 0 -23 -5q-5 -12 -5 -23.5t5 -16.5q1 -1 7.5 -8.5t16 -17.5t22.5 -20l46 -45q4 -7 14.5 -20.5t13.5 -19.5q11 -23 11 -46q0 -41 -28 -79q-29 -29 -74 -29q-37 0 -63 17q-28 19 -45 63l51 34q26 -51 57 -51q17 0 28.5 11.5t11.5 22.5
q0 17 -6 28q-3 4 -12 11.5t-17.5 16t-15.5 18.5q-10 9 -24.5 23t-21.5 21t-14 15.5t-9 14.5q-17 34 -17 57q0 40 28.5 68t68.5 28q23 0 45 -11q29 -28 46 -51zM660 259l57 -85h-74l-29 45q-30 -23 -79 -23q-77 0 -125 57q-52 60 -52 142q0 57 23 103q28 46 63 74
q47 28 85 28q76 0 125 -57q51 -59 51 -142q0 -78 -45 -142zM620 316q23 45 23 74q0 57 -34 91q-40 40 -80 40q-45 0 -79.5 -34.5t-34.5 -91.5q0 -62 40 -102q38 -28 68 -28q12 0 46 11l-51 85h74l28 -45v0zM740 583h62v-307h91v-68h-159v375h6zM978 674v-580h-932v580h932v0
zM1018 714h-1012v-654h1012v654v0z" />
    <glyph glyph-name="uniE61B" unicode="&#xe61b;" 
d="M273 555l-60 -56q-33 47 -68 47q-8 0 -26 -8q-8 -9 -8 -22q0 -4 8 -21q26 -26 60 -56q34 -25 60 -51q28 -28 34 -51q13 -26 13 -51q0 -51 -39 -90q-40 -34 -98 -34q-45 0 -81 21q-39 32 -59 73l68 43q33 -60 72 -60q22 0 34.5 13t12.5 30t-13 29q-2 3 -9 11t-16.5 17.5
t-20.5 18.5q-79 65 -94 90q-22 36 -22 64q0 43 34.5 77t85.5 34q35 0 64 -17q30 -5 68 -51zM708 243l77 -98h-98l-38 51q-45 -25 -107 -25q-100 0 -162 68q-64 70 -64 162q0 67 30 115q37 60 85 81q48 30 115 30q96 0 158 -68q68 -62 68 -162q-14 -98 -64 -154zM653 307
q25 39 25 86q0 64 -42.5 106.5t-102.5 42.5q-65 0 -102 -43q-43 -50 -43 -106q0 -71 51 -116q41 -34 94 -34q30 0 56 13l-77 102h98zM811 614h85v-358h119v-81h-204v439z" />
    <glyph glyph-name="uniE61C" unicode="&#xe61c;" 
d="M1024 179v-185q0 -11 -5 -22.5t-14 -16.5q-19 -19 -39 -19h-185q-19 0 -38.5 19t-19.5 39v185q0 11 5 22.5t14 16.5q20 19 39 19h57v115h-294v-115h58q19 0 38 -19.5t19 -38.5v-185q0 -11 -5 -22.5t-14 -16.5q-19 -19 -38 -19h-186q-19 0 -38.5 19t-19.5 39v185
q0 11 5.5 22.5t14.5 16.5q19 19 38 19h58v115h-295v-115h58q19 0 38 -19q13 -13 13 -39v-185q0 -10 -4 -22t-9 -17q-8 -25 -38 -25h-186q-19 0 -38 19q-13 25 -13 38v186q0 11 5 22.5t14 15.5q19 19 39 19h57v116q0 32 19.5 51t51.5 19h294v115h-58q-4 2 -12.5 4t-11.5 3.5
t-7.5 4.5t-6.5 7q-19 20 -19 39v185q0 11 5 22.5t14 16.5q9 25 38 25h186q22 0 32 -19q19 -19 19 -38v-186q0 -11 -5 -22.5t-14 -15.5q-4 -13 -12.5 -16t-25.5 -3h-58v-116h294q32 0 51.5 -19t19.5 -51v-115h57q20 0 39 -19.5t19 -38.5z" />
    <glyph glyph-name="uniE61D" unicode="&#xe61d;" 
d="M1024 192q0 -49 -26 -83q-32 -32 -76 -32q-20 0 -45.5 12.5t-38.5 25.5q-2 3 -13 11t-19 15q-25 13 -44 13q-71 0 -71 -77q0 -39 13 -71q6 -32 6 -70h-19q-5 0 -24 -3t-33 -3q-26 -7 -71 -7h-57q-36 0 -64 19q-15 10 -20.5 21t-5.5 30.5t13 45t25 31.5h-1q10 11 14 20
q13 25 13 44q0 45 -32 77q-26 26 -83 26q-56 0 -90 -26q-38 -29 -38 -77q0 -32 6 -51q10 -31 26 -38q3 -7 9.5 -16.5t9.5 -15.5q6 -13 6 -32q0 -34 -25 -51q-19 -20 -71 -20q-25 0 -153 13h-19h-20h-6v0v627h13h19h13q128 -12 153 -12q52 0 71 19q25 25 25 57q0 20 -6 32
q-3 0 -6 3.5t-7 8.5t-6 8q-16 16 -26 44q-6 13 -6 45q0 48 38 77q34 26 90 26q49 0 83 -26q32 -24 32 -77q0 -19 -13 -45q-6 -12 -25 -32q-7 -6 -20 -32q-12 -19 -12 -44q0 -20 5.5 -31t19.5 -21q29 -19 64 -19q64 0 109 7q17 2 40.5 4t38.5 4t23 4v-12q0 -13 -6 -20v-12
q-13 -64 -13 -148q0 -51 19 -70q26 -26 58 -26q19 0 32 7q26 13 32 19l38 19q26 13 45 13q48 0 77 -38q18 -19 25 -39.5t7 -50.5z" />
  </font>
</defs>
</svg>
